# xmcd
#
# Track frame offsets:
#	150
#	9083
#	19984
#	31319
#	40246
#	49309
#	58009
#	71108
#	81276
#	92683
#	103881
#	115439
#	124574
#	135068
#	145978
#	155569
#	167600
#	179451
#	190612
#	202536
#
# Disc length: 2844 seconds
#
# Revision: 0
# Processed by: cddbd v1.5.2PL0 Copyright (c) Steve Scherf et al.
# Submitted via: EasyCDDAExtractor 16.0.8.1
#
DISCID=080b1a14
DTITLE=Diadalmas Rock and Roll - Rock'n'Roll Music
DYEAR=1900
DGENRE=Rock and Roll
TTITLE0=Elvis Presley - That's All Right
TTITLE1=Chuck Berry - Roll Over Beethoven
TTITLE2=Bill Haley and his Comets - Shake, Rattle and Roll
TTITLE3=Eddie Cochran - Summertime Blues
TTITLE4=The Everly Brothers - Wake up Little Susie
TTITLE5=Elvis Presley - Hard Headed Woman
TTITLE6=Jerry Lee Lewis - Whole Lotta Shakin' Goin' On
TTITLE7=Elvis Presley with the Jordanaiers - A Big Hunk O' Love
TTITLE8=Buddy Holly - Peggy Sue
TTITLE9=Danny and the Starliters - Rock and Roll is Here toStay
TTITLE10=Chuck Berry - Rock and Roll Musick
TTITLE11=Joey Dee and the Sterliters - Peppermint Twist
TTITLE12=Johnny  Hallyday - Lassie les filles
TTITLE13=The Scorpions - Hello Josephine
TTITLE14=Little Richard - Good Golly Miss Molly
TTITLE15=Johnny Otis - Willie and the Hand Jive
TTITLE16=Johhny Preston - Running Bear
TTITLE17=Little Richard - Lucille
TTITLE18=Chubby Checker - The Twist
TTITLE19=Little Richard - Tutti Frutti
EXTD=
EXTT0=
EXTT1=
EXTT2=
EXTT3=
EXTT4=
EXTT5=
EXTT6=
EXTT7=
EXTT8=
EXTT9=
EXTT10=
EXTT11=
EXTT12=
EXTT13=
EXTT14=
EXTT15=
EXTT16=
EXTT17=
EXTT18=
EXTT19=
PLAYORDER=
